<svg width="28" height="25" viewBox="0 0 28 25" fill="none" xmlns="http://www.w3.org/2000/svg">
<path d="M19.8208 15.1612C19.8208 15.1612 19.8394 14.5473 19.17 14.5473H17.7814C17.1267 14.5473 17.1568 14.0055 17.1765 13.8597L18.4199 5.94735C18.5699 4.98961 17.6386 5.00001 17.6386 5.00001H17.0683H16.5599H9.9884H9.75283H9.15778C8.39057 5.00001 8.37752 5.57694 8.40203 5.80372L8.41562 5.89272L8.41589 5.89352L9.63691 13.7955C9.63718 13.7963 9.63718 13.7963 9.63718 13.7971C9.74217 14.4777 9.2609 14.5441 9.09755 14.5473H7.75022C6.98142 14.5473 7.00007 15.1178 7.00007 15.1178C7.00007 15.1178 6.97529 15.7376 7.86187 15.7376H19.1514C19.8333 15.7376 19.8208 15.1612 19.8208 15.1612ZM16.5764 13.0238L16.5694 13.0683L16.4546 13.7198V13.7214L16.4418 13.7937C16.4021 13.9887 16.2185 14.531 15.3884 14.531H11.2281C10.5107 14.531 10.3695 13.9613 10.3423 13.7835L10.3351 13.7284L10.3348 13.7268L10.2525 13.1176C10.2525 13.1168 10.2525 13.1168 10.2525 13.1165L10.2386 13.0267C10.2386 13.0259 10.2386 13.0251 10.2386 13.0243C10.1608 12.4572 10.5184 12.3581 10.7044 12.3437H15.9677C16.1255 12.3467 16.6851 12.3994 16.5764 13.0238Z" fill="url(#paint0_linear_397_37)"/>
<path d="M20.6091 20.2258C20.3927 20.2258 20.2176 20.4009 20.2176 20.6167V20.9232C20.2176 20.9301 20.2157 20.9344 20.2152 20.9405C20.2165 20.9506 20.2208 20.9586 20.2208 20.9687C20.2208 21.1241 20.095 21.2494 19.9405 21.2494C19.7848 21.2494 19.6593 21.1241 19.6593 20.9687C19.6593 20.9666 19.6599 20.965 19.6599 20.9634H19.6575V20.5608V20.44V19.8967V19.6814C19.6575 19.1884 19.5589 18.8843 19.4818 18.7215C19.4707 18.6997 19.4589 18.6783 19.4477 18.657C19.4357 18.6352 19.4208 18.6149 19.4075 18.5949C19.3654 18.5334 19.3185 18.4753 19.2671 18.4217C19.2473 18.4028 19.2266 18.3849 19.2055 18.3671C19.1919 18.3548 19.1773 18.3434 19.1629 18.3314C18.7663 18.0281 18.2139 17.9943 18.0412 17.9913H17.4505H17.2551C17.0289 17.1583 16.2753 16.5425 15.3711 16.5425C14.2886 16.5425 13.4106 17.4203 13.4106 18.503C13.4106 19.5854 14.2886 20.463 15.3711 20.463C16.3454 20.463 17.1472 19.7504 17.2994 18.819H17.9562V18.8209C18.1372 18.8241 18.3077 18.8633 18.466 18.9278C18.5867 18.9856 18.9294 19.2004 18.9294 19.8077V20.653C18.9294 20.9485 18.9529 21.1289 18.9766 21.2379C19.1106 21.6976 19.5306 22.0344 20.0332 22.0344C20.2925 22.0344 20.5246 21.9379 20.7114 21.7868C20.8233 21.6768 21.008 21.4159 20.9997 20.8771V20.6159C20.9997 20.4009 20.8247 20.2258 20.6091 20.2258Z" fill="url(#paint1_linear_397_37)"/>
<defs>
<linearGradient id="paint0_linear_397_37" x1="17.5314" y1="6.89105" x2="12.291" y2="16.1072" gradientUnits="userSpaceOnUse">
<stop stop-color="#1C4A80"/>
<stop offset="1" stop-color="#9489FF"/>
</linearGradient>
<linearGradient id="paint1_linear_397_37" x1="19.6447" y1="17.5097" x2="17.176" y2="22.5346" gradientUnits="userSpaceOnUse">
<stop stop-color="#1C4A80"/>
<stop offset="1" stop-color="#9489FF"/>
</linearGradient>
</defs>
</svg>
