<svg width="150" height="20" viewBox="0 0 150 20" fill="none" xmlns="http://www.w3.org/2000/svg">
<path d="M11.6904 8.18945C11.4215 8.18945 11.2871 8.07552 11.2871 7.84766V7.16406C11.2871 6.9362 11.4215 6.82227 11.6904 6.82227H12.0732V5.86523C12.0732 5.02669 12.3125 4.46842 12.791 4.19043C13.2695 3.91243 13.8392 3.77344 14.5 3.77344C14.8145 3.77344 15.0833 3.79167 15.3066 3.82812C15.5345 3.86458 15.735 3.91016 15.9082 3.96484C16.0723 4.01953 16.1315 4.13346 16.0859 4.30664L15.8809 5.0791C15.8398 5.22949 15.735 5.27507 15.5664 5.21582C15.4661 5.17936 15.3249 5.1543 15.1426 5.14062C14.9648 5.1224 14.8236 5.11328 14.7188 5.11328C14.3861 5.11328 14.181 5.22949 14.1035 5.46191C14.026 5.69434 13.9873 6.05664 13.9873 6.54883V6.82227H14.8896C15.1585 6.82227 15.293 6.9362 15.293 7.16406V7.84766C15.293 8.07552 15.1585 8.18945 14.8896 8.18945H13.9873V13.5898C13.9873 13.8633 13.8506 14 13.5771 14H12.4834C12.21 14 12.0732 13.8633 12.0732 13.5898V8.18945H11.6904ZM16.209 10.4111C16.209 9.25814 16.4961 8.34896 17.0703 7.68359C17.6491 7.01823 18.4648 6.68555 19.5176 6.68555C20.7389 6.68555 21.6458 7 22.2383 7.62891C22.8307 8.25781 23.127 9.26953 23.127 10.6641C23.127 10.9375 22.9993 11.0742 22.7441 11.0742H18.2324C18.3053 11.8307 18.4922 12.307 18.793 12.5029C19.0938 12.6989 19.4424 12.7969 19.8389 12.7969C20.2171 12.7969 20.5065 12.7467 20.707 12.6465C20.9076 12.5462 21.0762 12.4095 21.2129 12.2363C21.3678 12.0358 21.5592 12.0039 21.7871 12.1406L22.4707 12.5576C22.7396 12.7217 22.7783 12.9176 22.5869 13.1455C22.3089 13.4782 21.9831 13.7266 21.6094 13.8906C21.2357 14.0547 20.6455 14.1367 19.8389 14.1367C18.5309 14.1367 17.599 13.804 17.043 13.1387C16.487 12.4733 16.209 11.5641 16.209 10.4111ZM18.2393 9.70703H21.2129C21.2129 9.21484 21.0898 8.8138 20.8438 8.50391C20.5977 8.18945 20.2057 8.03223 19.668 8.03223C19.2396 8.03223 18.9001 8.18262 18.6494 8.4834C18.3988 8.77962 18.262 9.1875 18.2393 9.70703ZM25.0273 14C24.7539 14 24.6172 13.8633 24.6172 13.5898V7.23242C24.6172 6.95898 24.7539 6.82227 25.0273 6.82227H26.1074C26.3809 6.82227 26.5176 6.95898 26.5176 7.23242V7.62891H26.5449C26.7546 7.26888 27.0212 7.02279 27.3447 6.89062C27.6683 6.75391 28.0579 6.68555 28.5137 6.68555C29.2246 6.68555 29.8125 6.90885 30.2773 7.35547C30.7422 7.80208 30.9746 8.61784 30.9746 9.80273V13.5898C30.9746 13.8633 30.8379 14 30.5645 14H29.4707C29.1973 14 29.0605 13.8633 29.0605 13.5898V10.2949C29.0605 9.30143 28.9922 8.6748 28.8555 8.41504C28.7188 8.15527 28.4248 8.02539 27.9736 8.02539C27.4951 8.02539 27.1351 8.21224 26.8936 8.58594C26.652 8.95508 26.5312 9.72526 26.5312 10.8965V13.5898C26.5312 13.8633 26.3945 14 26.1211 14H25.0273ZM32.4375 10.4111C32.4375 9.24902 32.7292 8.33757 33.3125 7.67676C33.8958 7.01595 34.7913 6.68555 35.999 6.68555C36.7054 6.68555 37.2546 6.77897 37.6465 6.96582C38.0384 7.15267 38.3529 7.42611 38.5898 7.78613C38.7311 8.00033 38.7083 8.16895 38.5215 8.29199L37.7969 8.77051C37.5918 8.90723 37.4118 8.85482 37.2568 8.61328C37.1794 8.49479 37.0312 8.36719 36.8125 8.23047C36.5938 8.09375 36.3226 8.02539 35.999 8.02539C35.484 8.02539 35.099 8.20768 34.8438 8.57227C34.5885 8.93229 34.4609 9.54525 34.4609 10.4111C34.4609 11.277 34.5885 11.8923 34.8438 12.2568C35.099 12.6169 35.484 12.7969 35.999 12.7969C36.3682 12.7969 36.6667 12.7194 36.8945 12.5645C37.1224 12.4095 37.3366 12.209 37.5371 11.9629C37.7103 11.7533 37.8926 11.7236 38.084 11.874L38.7197 12.373C38.9111 12.5234 38.9225 12.724 38.7539 12.9746C38.5762 13.2389 38.2731 13.4987 37.8447 13.7539C37.4209 14.0091 36.8057 14.1367 35.999 14.1367C34.7913 14.1367 33.8958 13.8063 33.3125 13.1455C32.7292 12.4847 32.4375 11.5732 32.4375 10.4111ZM39.7998 7.35547C39.6768 7 39.752 6.82227 40.0254 6.82227H41.249C41.4587 6.82227 41.5954 6.93848 41.6592 7.1709L42.6914 10.9922C42.7415 11.1699 42.7848 11.4001 42.8213 11.6826C42.8623 11.9606 42.8828 12.1383 42.8828 12.2158H42.9238C42.9785 11.9743 43.0173 11.7829 43.04 11.6416C43.0674 11.4958 43.138 11.2155 43.252 10.8008L44.2295 7.1709C44.2933 6.93848 44.43 6.82227 44.6396 6.82227H45.8633C46.1322 6.82227 46.2074 7 46.0889 7.35547L43.7852 14.2871C43.5163 15.0983 43.1859 15.7318 42.7939 16.1875C42.402 16.6432 41.8574 16.8711 41.1602 16.8711C40.7773 16.8711 40.4355 16.8392 40.1348 16.7754C39.9616 16.7389 39.8955 16.6204 39.9365 16.4199L40.0869 15.668C40.1279 15.472 40.2441 15.4036 40.4355 15.4629C40.5768 15.5085 40.709 15.5312 40.832 15.5312C41.2012 15.5312 41.4814 15.3558 41.6729 15.0049C41.8688 14.654 41.9987 14.3532 42.0625 14.1025L42.083 14L39.7998 7.35547Z" fill="#4D5ACC"/>
<path d="M7.78967 11.1738C7.78967 11.1738 7.801 10.8007 7.39429 10.8007H6.55058C6.15277 10.8007 6.17106 10.4716 6.18304 10.383L6.93851 5.57559C7.02967 4.99369 6.46379 5 6.46379 5H6.11731H5.80838H1.8157H1.67257H1.31102C0.844886 5 0.836953 5.35054 0.851848 5.48832L0.860106 5.5424L0.860267 5.54289L1.60214 10.344C1.6023 10.3445 1.6023 10.3445 1.6023 10.345C1.66609 10.7585 1.37368 10.7988 1.27443 10.8007H0.455817C-0.0112915 10.8007 4.22112e-05 11.1474 4.22112e-05 11.1474C4.22112e-05 11.1474 -0.0150154 11.524 0.523658 11.524H7.38295C7.79728 11.524 7.78967 11.1738 7.78967 11.1738ZM5.81842 9.8751L5.81421 9.90214L5.74443 10.298V10.299L5.73666 10.3429C5.71253 10.4614 5.60098 10.7909 5.09663 10.7909H2.5689C2.13304 10.7909 2.04723 10.4447 2.03071 10.3367L2.02634 10.3032L2.02618 10.3022L1.97615 9.93209C1.97615 9.9316 1.97615 9.9316 1.97615 9.93144L1.96773 9.87688C1.96773 9.87639 1.96773 9.87591 1.96773 9.87542C1.92045 9.53088 2.13773 9.47065 2.25075 9.46191H5.44862C5.54447 9.46369 5.88448 9.49574 5.81842 9.8751Z" fill="#4D5ACC"/>
<path d="M8.26862 14.2509C8.13715 14.2509 8.03078 14.3573 8.03078 14.4884V14.6746C8.03078 14.6788 8.02964 14.6814 8.02932 14.6852C8.03013 14.6913 8.03272 14.6962 8.03272 14.7023C8.03272 14.7967 7.9563 14.8728 7.86239 14.8728C7.76783 14.8728 7.69157 14.7967 7.69157 14.7023C7.69157 14.701 7.6919 14.7001 7.6919 14.6991H7.69044V14.4544V14.3811V14.051V13.9201C7.69044 13.6206 7.63053 13.4359 7.58374 13.3369C7.57694 13.3237 7.56982 13.3107 7.56302 13.2978C7.55573 13.2845 7.54667 13.2722 7.53857 13.26C7.51299 13.2226 7.48449 13.1873 7.45324 13.1548C7.44126 13.1433 7.42863 13.1324 7.41584 13.1216C7.40759 13.1141 7.39868 13.1072 7.38994 13.0999C7.14902 12.9156 6.81338 12.8951 6.70846 12.8933H6.34951H6.23083C6.09337 12.3872 5.63549 12.013 5.08613 12.013C4.42845 12.013 3.89496 12.5463 3.89496 13.2042C3.89496 13.8618 4.42845 14.395 5.08613 14.395C5.67807 14.395 6.16525 13.9621 6.2577 13.3962H6.65681V13.3973C6.76675 13.3993 6.87037 13.4231 6.96654 13.4623C7.03989 13.4974 7.2481 13.6279 7.2481 13.9969V14.5105C7.2481 14.69 7.26235 14.7996 7.27676 14.8658C7.3582 15.1451 7.61337 15.3498 7.91873 15.3498C8.07627 15.3498 8.21729 15.2912 8.33079 15.1994C8.3988 15.1325 8.511 14.974 8.50598 14.6466V14.4879C8.50598 14.3573 8.3996 14.2509 8.26862 14.2509Z" fill="#4D5ACC"/>
<path d="M51.2354 14C50.9847 14 50.8594 13.8657 50.8594 13.5972V6.70068C50.8594 6.43213 50.9847 6.29785 51.2354 6.29785H53.7222C54.8286 6.29785 55.6361 6.46973 56.1445 6.81348C56.653 7.15365 56.9072 7.70866 56.9072 8.47852C56.9072 9.05143 56.7013 9.50798 56.2896 9.84814C55.8778 10.1883 55.355 10.4139 54.7212 10.5249V10.5356C55.0649 10.6646 55.3245 10.8436 55.5 11.0728C55.6755 11.3019 55.8187 11.5024 55.9297 11.6743L57.1113 13.5381C57.3083 13.846 57.2402 14 56.9072 14H55.9727C55.7757 14 55.6146 13.8944 55.4893 13.6831L54.4043 11.873C54.2861 11.6797 54.0695 11.4684 53.7544 11.2393C53.4429 11.0065 53.1331 10.8901 52.8252 10.8901H52.4277V13.5972C52.4277 13.8657 52.3024 14 52.0518 14H51.2354ZM52.4277 9.55811H53.3892C54.1053 9.55811 54.6138 9.47754 54.9146 9.31641C55.2189 9.15169 55.3711 8.89209 55.3711 8.5376C55.3711 8.15088 55.2243 7.90023 54.9307 7.78564C54.6406 7.66748 54.2127 7.6084 53.647 7.6084H52.4277V9.55811ZM58.9053 14C58.6546 14 58.5293 13.8657 58.5293 13.5972V6.70068C58.5293 6.43213 58.6546 6.29785 58.9053 6.29785H63.5137C63.7822 6.29785 63.9165 6.41423 63.9165 6.64697V7.28076C63.9165 7.51351 63.7822 7.62988 63.5137 7.62988H60.0977V9.33789H63.229C63.4976 9.33789 63.6318 9.45426 63.6318 9.68701V10.3208C63.6318 10.5535 63.4976 10.6699 63.229 10.6699H60.0977V12.668H63.6855C63.9541 12.668 64.0884 12.7843 64.0884 13.0171V13.6509C64.0884 13.8836 63.9541 14 63.6855 14H58.9053ZM65.1626 14C64.9048 14 64.8206 13.8818 64.9102 13.6455L67.542 6.73291C67.653 6.44287 67.8213 6.29785 68.0469 6.29785H68.7988C69.0244 6.29785 69.1927 6.44287 69.3037 6.73291L71.9355 13.6455C72.0251 13.8818 71.9409 14 71.6831 14H70.8291C70.5928 14 70.4281 13.8765 70.335 13.6294L69.7871 12.1846H67.0586L66.5107 13.6294C66.4176 13.8765 66.2529 14 66.0166 14H65.1626ZM67.5581 10.8525H69.2876L68.627 9.14453C68.5482 8.94401 68.4998 8.79899 68.4819 8.70947C68.4676 8.61637 68.4515 8.48031 68.4336 8.30127H68.4121C68.3942 8.48031 68.3763 8.61637 68.3584 8.70947C68.3441 8.79899 68.2975 8.94401 68.2188 9.14453L67.5581 10.8525ZM72.4941 10.1489C72.4941 8.91357 72.8075 7.93245 73.4341 7.20557C74.0607 6.47868 74.9648 6.11523 76.1465 6.11523C76.8268 6.11523 77.4033 6.22087 77.876 6.43213C78.3486 6.64339 78.6816 6.94954 78.875 7.35059C79.0039 7.61556 78.9824 7.7946 78.8105 7.8877L78.166 8.23145C77.9404 8.35319 77.7542 8.28516 77.6074 8.02734C77.5143 7.86263 77.3407 7.71403 77.0864 7.58154C76.8358 7.44906 76.5404 7.38281 76.2002 7.38281C75.4482 7.38281 74.9219 7.62093 74.6211 8.09717C74.3203 8.56982 74.1699 9.25374 74.1699 10.1489C74.1699 11.0441 74.3203 11.7298 74.6211 12.2061C74.9219 12.6787 75.4482 12.915 76.2002 12.915C76.6048 12.915 76.945 12.8237 77.2207 12.6411C77.5 12.4585 77.6934 12.2848 77.8008 12.1201C77.9762 11.8516 78.1624 11.7835 78.3594 11.916L79.0039 12.3457C79.1794 12.4639 79.1973 12.6429 79.0576 12.8828C78.8499 13.2409 78.4937 13.547 77.9888 13.8013C77.4839 14.0555 76.8698 14.1826 76.1465 14.1826C74.9827 14.1826 74.0822 13.8192 73.4448 13.0923C72.811 12.3654 72.4941 11.3843 72.4941 10.1489ZM80.2339 7.67285C79.9653 7.67285 79.8311 7.55648 79.8311 7.32373V6.64697C79.8311 6.41423 79.9653 6.29785 80.2339 6.29785H85.7554C86.0239 6.29785 86.1582 6.41423 86.1582 6.64697V7.32373C86.1582 7.55648 86.0239 7.67285 85.7554 7.67285H83.7788V13.7046C83.7788 13.9015 83.6893 14 83.5103 14H82.479C82.3 14 82.2104 13.9015 82.2104 13.7046V7.67285H80.2339ZM91.3359 14C91.0853 14 90.96 13.8657 90.96 13.5972V6.70068C90.96 6.43213 91.0853 6.29785 91.3359 6.29785H95.9443C96.2129 6.29785 96.3472 6.41423 96.3472 6.64697V7.28076C96.3472 7.51351 96.2129 7.62988 95.9443 7.62988H92.5283V9.33789H95.6597C95.9282 9.33789 96.0625 9.45426 96.0625 9.68701V10.3208C96.0625 10.5535 95.9282 10.6699 95.6597 10.6699H92.5283V12.668H96.1162C96.3848 12.668 96.519 12.7843 96.519 13.0171V13.6509C96.519 13.8836 96.3848 14 96.1162 14H91.3359ZM97.8672 14C97.5234 14 97.4554 13.846 97.6631 13.5381L100.042 10.0254L97.8564 6.75977C97.6488 6.45182 97.7168 6.29785 98.0605 6.29785H99.1455C99.3353 6.29785 99.4964 6.40348 99.6289 6.61475L101.095 8.93506L102.562 6.61475C102.694 6.40348 102.855 6.29785 103.045 6.29785H104.13C104.474 6.29785 104.542 6.45182 104.334 6.75977L102.143 10.0254L104.527 13.5381C104.735 13.846 104.667 14 104.323 14H103.222C103.036 14 102.875 13.8944 102.739 13.6831L101.095 11.1157L99.4517 13.6831C99.3156 13.8944 99.1545 14 98.9683 14H97.8672ZM105.209 14C104.952 14 104.868 13.8818 104.957 13.6455L107.589 6.73291C107.7 6.44287 107.868 6.29785 108.094 6.29785H108.846C109.071 6.29785 109.24 6.44287 109.351 6.73291L111.982 13.6455C112.072 13.8818 111.988 14 111.73 14H110.876C110.64 14 110.475 13.8765 110.382 13.6294L109.834 12.1846H107.105L106.558 13.6294C106.465 13.8765 106.3 14 106.063 14H105.209ZM107.605 10.8525H109.334L108.674 9.14453C108.595 8.94401 108.547 8.79899 108.529 8.70947C108.514 8.61637 108.498 8.48031 108.48 8.30127H108.459C108.441 8.48031 108.423 8.61637 108.405 8.70947C108.391 8.79899 108.344 8.94401 108.266 9.14453L107.605 10.8525ZM113.314 14C113.064 14 112.938 13.8657 112.938 13.5972V6.70068C112.938 6.43213 113.064 6.29785 113.314 6.29785H114.872C115.08 6.29785 115.228 6.44108 115.318 6.72754L116.773 11.438C116.838 11.6421 116.883 11.8104 116.908 11.9429C116.933 12.0718 116.954 12.2257 116.972 12.4048H117.004C117.022 12.2257 117.044 12.0718 117.069 11.9429C117.094 11.8104 117.139 11.6421 117.203 11.438L118.659 6.72754C118.748 6.44108 118.897 6.29785 119.104 6.29785H120.662C120.913 6.29785 121.038 6.43213 121.038 6.70068V13.5972C121.038 13.8657 120.913 14 120.662 14H119.846C119.595 14 119.47 13.8657 119.47 13.5972V9.16064C119.47 8.9458 119.479 8.73096 119.497 8.51611H119.459L117.907 13.5649C117.817 13.855 117.663 14 117.445 14H116.532C116.313 14 116.159 13.855 116.07 13.5649L114.518 8.51611H114.48C114.498 8.73096 114.507 8.9458 114.507 9.16064V13.5972C114.507 13.8657 114.382 14 114.131 14H113.314ZM123.133 14C122.882 14 122.757 13.8657 122.757 13.5972V6.70068C122.757 6.43213 122.882 6.29785 123.133 6.29785H125.142C126.431 6.29785 127.324 6.50732 127.822 6.92627C128.323 7.34521 128.574 7.93962 128.574 8.70947C128.574 9.47933 128.323 10.0737 127.822 10.4927C127.324 10.9116 126.431 11.1211 125.142 11.1211H124.325V13.5972C124.325 13.8657 124.2 14 123.949 14H123.133ZM124.325 9.81055H125.136C125.852 9.81055 126.339 9.7264 126.597 9.55811C126.855 9.38623 126.984 9.10335 126.984 8.70947C126.984 8.31559 126.855 8.03451 126.597 7.86621C126.339 7.69434 125.852 7.6084 125.136 7.6084H124.325V9.81055ZM130.266 14C130.015 14 129.89 13.8657 129.89 13.5972V6.70068C129.89 6.43213 130.015 6.29785 130.266 6.29785H131.136C131.351 6.29785 131.458 6.43213 131.458 6.70068V12.668H134.589C134.858 12.668 134.992 12.7843 134.992 13.0171V13.6509C134.992 13.8836 134.858 14 134.589 14H130.266ZM136.507 14C136.256 14 136.131 13.8657 136.131 13.5972V6.70068C136.131 6.43213 136.256 6.29785 136.507 6.29785H141.115C141.384 6.29785 141.518 6.41423 141.518 6.64697V7.28076C141.518 7.51351 141.384 7.62988 141.115 7.62988H137.699V9.33789H140.831C141.099 9.33789 141.233 9.45426 141.233 9.68701V10.3208C141.233 10.5535 141.099 10.6699 140.831 10.6699H137.699V12.668H141.287C141.556 12.668 141.69 12.7843 141.69 13.0171V13.6509C141.69 13.8836 141.556 14 141.287 14H136.507ZM143.097 13.4253C142.875 13.257 142.821 13.0869 142.936 12.915L143.35 12.292C143.486 12.0879 143.684 12.0771 143.946 12.2598C144.146 12.3994 144.408 12.5444 144.73 12.6948C145.056 12.8416 145.398 12.915 145.756 12.915C146.007 12.915 146.248 12.8864 146.481 12.8291C146.714 12.7718 146.891 12.6608 147.013 12.4961C147.134 12.3314 147.195 12.1362 147.195 11.9106C147.195 11.7495 147.168 11.6081 147.115 11.4863C147.061 11.3646 146.973 11.2643 146.852 11.1855C146.73 11.1068 146.604 11.0405 146.476 10.9868C146.25 10.8937 145.965 10.8024 145.622 10.7129C145.281 10.6198 144.945 10.5088 144.612 10.3799C144.315 10.2653 144.042 10.1077 143.795 9.90723C143.548 9.70671 143.357 9.48112 143.221 9.23047C143.085 8.97982 143.017 8.64502 143.017 8.22607C143.017 7.72835 143.178 7.30225 143.5 6.94775C143.822 6.59326 144.193 6.36589 144.612 6.26562C145.031 6.16536 145.453 6.11523 145.879 6.11523C146.302 6.11523 146.737 6.17969 147.185 6.30859C147.636 6.4375 147.976 6.59863 148.205 6.79199C148.431 6.98177 148.486 7.15365 148.372 7.30762L147.937 7.89307C147.79 8.09359 147.593 8.1097 147.346 7.94141C147.188 7.83398 146.972 7.71403 146.696 7.58154C146.424 7.44906 146.139 7.38281 145.842 7.38281C145.631 7.38281 145.435 7.40072 145.256 7.43652C145.081 7.47233 144.925 7.55827 144.789 7.69434C144.653 7.8304 144.585 7.9987 144.585 8.19922C144.585 8.39258 144.635 8.55013 144.735 8.67188C144.836 8.79004 144.947 8.87956 145.068 8.94043C145.19 8.99772 145.314 9.04606 145.439 9.08545C145.826 9.21077 146.171 9.32178 146.476 9.41846C146.78 9.51156 147.061 9.6154 147.319 9.72998C147.677 9.89111 147.951 10.0522 148.141 10.2134C148.33 10.3745 148.486 10.5947 148.608 10.874C148.733 11.1533 148.796 11.4863 148.796 11.873C148.796 12.446 148.613 12.9204 148.248 13.2964C147.883 13.6688 147.476 13.9087 147.029 14.0161C146.585 14.1271 146.152 14.1826 145.729 14.1826C145.106 14.1826 144.599 14.1217 144.209 14C143.819 13.8818 143.448 13.6903 143.097 13.4253Z" fill="#8891DD"/>
</svg>
